<svg width="21" height="21" viewBox="0 0 21 21" fill="none" xmlns="http://www.w3.org/2000/svg">
<path d="M19.6197 14.9398C19.516 14.8611 19.4087 14.7795 19.3082 14.6991C18.7753 14.2728 18.2083 13.8799 17.66 13.4999C17.5462 13.4211 17.4324 13.3422 17.319 13.2631C16.6166 12.7728 15.9852 12.5345 15.3886 12.5345C14.5851 12.5345 13.8845 12.9758 13.3063 13.846C13.0501 14.2318 12.7393 14.4193 12.3563 14.4193C12.1298 14.4193 11.8725 14.3551 11.5915 14.2283C9.32442 13.2065 7.70556 11.6397 6.77982 9.57159C6.33231 8.57202 6.47738 7.91863 7.26496 7.38687C7.71219 7.08516 8.54465 6.52346 8.48568 5.44785C8.41891 4.22639 5.70749 0.551166 4.56506 0.13374C4.08137 -0.0430582 3.57317 -0.0447055 3.05185 0.129622C1.73853 0.568461 0.796078 1.33914 0.326129 2.3582C-0.128008 3.34288 -0.107501 4.49907 0.385442 5.70179C1.81048 9.17915 3.81402 12.2109 6.3406 14.7128C8.81367 17.1619 11.8533 19.168 15.3749 20.6753C15.6924 20.8111 16.0253 20.8851 16.2684 20.9391C16.3513 20.9577 16.4228 20.9734 16.475 20.9876C16.5036 20.9954 16.5332 20.9996 16.5628 20.9999L16.5906 21C16.5907 21 16.5906 21 16.5908 21C18.2471 21 20.2359 19.4956 20.8467 17.7804C21.3819 16.2786 20.4048 15.5363 19.6197 14.9398Z" fill="#007697"/>
</svg>
