<svg width="22" height="22" viewBox="0 0 22 22" fill="none" xmlns="http://www.w3.org/2000/svg">
<path d="M1.93363 2.62109H20.0664C20.3641 2.62109 20.6427 2.69427 20.8948 2.81488L11.043 12.6667L8.83488 10.5446C8.83488 10.5446 8.83471 10.5444 8.83467 10.5443C8.83463 10.5442 8.83445 10.5441 8.83445 10.5441L1.10493 2.81505C1.35707 2.69436 1.6359 2.62109 1.93363 2.62109Z" fill="#007697"/>
<path d="M0.193532 3.72656L7.46741 11.0001L0.19379 18.2737C0.0731769 18.0216 9.53674e-07 17.7429 9.53674e-07 17.4453V4.55466C9.53674e-07 4.25718 0.0730047 3.97857 0.193532 3.72656Z" fill="#007697"/>
<path d="M21.8062 3.72632C21.9268 3.97842 22 4.25707 22 4.55471V17.4453C22 17.7428 21.9269 18.0215 21.8064 18.2735L14.5325 11L21.8062 3.72632Z" fill="#007697"/>
<path d="M8.3788 11.9116L10.5872 14.0339C10.7131 14.1598 10.878 14.2228 11.0429 14.2228C11.2078 14.2228 11.3727 14.1598 11.4986 14.0339L13.6211 11.9115L20.8951 19.185C20.6429 19.3057 20.3641 19.379 20.0664 19.379H1.93357C1.63593 19.379 1.35728 19.3058 1.10518 19.1852L8.3788 11.9116Z" fill="#007697"/>
</svg>
