<svg width="16" height="24" viewBox="0 0 16 24" fill="none" xmlns="http://www.w3.org/2000/svg">
<path d="M7.99995 0C3.58883 0 -6.10352e-05 3.58889 -6.10352e-05 8.00002C-6.10352e-05 9.32423 0.331017 10.6372 0.960408 11.8018L7.56247 23.7422C7.65036 23.9014 7.81784 24 7.99995 24C8.18206 24 8.34955 23.9014 8.43744 23.7422L15.0419 11.7978C15.6689 10.6372 16 9.32419 16 7.99997C16 3.58889 12.4111 0 7.99995 0ZM7.99995 12C5.79439 12 3.99997 10.2056 3.99997 8.00002C3.99997 5.79445 5.79439 4.00003 7.99995 4.00003C10.2055 4.00003 11.9999 5.79445 11.9999 8.00002C11.9999 10.2056 10.2055 12 7.99995 12Z" fill="#007697"/>
</svg>
