<svg width="30" height="30" viewBox="0 0 30 30" fill="none" xmlns="http://www.w3.org/2000/svg">
<path d="M25.5945 4.40555C22.7535 1.56457 18.991 0 15 0C11.009 0 7.24647 1.56457 4.40555 4.40555C1.56457 7.24647 0 11.009 0 15C0 18.991 1.56457 22.7535 4.40555 25.5945C7.24647 28.4354 11.009 30 15 30C18.991 30 22.7535 28.4354 25.5945 25.5945C28.4354 22.7535 30 18.991 30 15C30 11.009 28.4354 7.24647 25.5945 4.40555ZM15 28.2422C7.69822 28.2422 1.75781 22.3018 1.75781 15C1.75781 7.69822 7.69822 1.75781 15 1.75781C22.3018 1.75781 28.2422 7.69822 28.2422 15C28.2422 22.3018 22.3018 28.2422 15 28.2422Z" fill="#007697"/>
<path d="M15 3.57422C8.69982 3.57422 3.57422 8.69982 3.57422 15C3.57422 21.3002 8.69982 26.4258 15 26.4258C21.3002 26.4258 26.4258 21.3002 26.4258 15C26.4258 8.69982 21.3002 3.57422 15 3.57422ZM15 24.668C9.66908 24.668 5.33203 20.3309 5.33203 15C5.33203 9.66908 9.66908 5.33203 15 5.33203C20.3309 5.33203 24.668 9.66908 24.668 15C24.668 20.3309 20.3309 24.668 15 24.668Z" fill="#007697"/>
<path d="M17.6367 12.3544C17.6367 12.8398 18.0302 13.2333 18.5156 13.2333C19.001 13.2333 19.3945 12.8398 19.3945 12.3544C19.3945 11.3811 18.8911 10.4452 18.0132 9.78685C17.4137 9.33714 16.6759 9.03673 15.8789 8.90894V7.95984C15.8789 7.47445 15.4854 7.08093 15 7.08093C14.5146 7.08093 14.1211 7.47445 14.1211 7.95984V8.90894C13.324 9.03673 12.5863 9.33714 11.9868 9.78685C11.1089 10.4452 10.6055 11.3811 10.6055 12.3544C10.6055 13.3278 11.1089 14.2636 11.9868 14.922C12.5863 15.3717 13.3241 15.6721 14.1211 15.7999V19.2809C13.1086 19.0335 12.3633 18.3764 12.3633 17.6279C12.3633 17.1425 11.9698 16.749 11.4844 16.749C10.999 16.749 10.6055 17.1425 10.6055 17.6279C10.6055 18.6012 11.1089 19.537 11.9868 20.1954C12.5863 20.6452 13.3241 20.9456 14.1211 21.0734V22.0313C14.1211 22.5167 14.5146 22.9102 15 22.9102C15.4854 22.9102 15.8789 22.5167 15.8789 22.0313V21.0734C16.676 20.9456 17.4137 20.6452 18.0132 20.1954C18.8911 19.5371 19.3945 18.6012 19.3945 17.6279C19.3945 16.6545 18.8911 15.7186 18.0132 15.0603C17.4137 14.6106 16.6759 14.3102 15.8789 14.1824V10.7014C16.8914 10.9489 17.6367 11.6059 17.6367 12.3544ZM12.3633 12.3544C12.3633 11.6059 13.1086 10.9488 14.1211 10.7014V14.0074C13.1086 13.76 12.3633 13.103 12.3633 12.3544ZM17.6367 17.6279C17.6367 18.3764 16.8914 19.0335 15.8789 19.2809V15.9749C16.8914 16.2223 17.6367 16.8793 17.6367 17.6279Z" fill="#007697"/>
</svg>
