<svg width="30" height="30" viewBox="0 0 30 30" fill="none" xmlns="http://www.w3.org/2000/svg">
<path d="M15 0C6.70951 0 0 6.70881 0 15C0 23.2905 6.70881 30 15 30C23.2905 30 30 23.2912 30 15C30 6.70951 23.2912 0 15 0ZM26.0919 15.8789H28.2123C28.0153 18.8698 26.8213 21.5924 24.9598 23.7168L24.0506 22.8076C23.7074 22.4643 23.1509 22.4644 22.8076 22.8076C22.4644 23.1509 22.4644 23.7073 22.8076 24.0506L23.7169 24.9598C21.5925 26.8213 18.8698 28.0153 15.8789 28.2123V26.6779C15.8789 26.1925 15.4854 25.7989 15 25.7989C14.5146 25.7989 14.1211 26.1925 14.1211 26.6779V28.2123C11.1302 28.0153 8.40756 26.8213 6.28318 24.9598L7.19238 24.0506C7.53562 23.7074 7.53562 23.1509 7.19238 22.8076C6.8492 22.4644 6.29268 22.4644 5.94943 22.8076L5.04023 23.7168C3.17865 21.5925 1.98469 18.8698 1.7877 15.8789H3.32215C3.80754 15.8789 4.20105 15.4854 4.20105 15C4.20105 14.5146 3.80754 14.1211 3.32215 14.1211H1.7877C1.98469 11.1302 3.17865 8.40756 5.04018 6.28318L5.94938 7.19238C6.29262 7.53562 6.84908 7.53562 7.19232 7.19238C7.53551 6.8492 7.53551 6.29268 7.19232 5.94943L6.28312 5.04023C8.4075 3.17865 11.1302 1.98469 14.1211 1.7877V3.32215C14.1211 3.80754 14.5146 4.20105 15 4.20105C15.4854 4.20105 15.8789 3.80754 15.8789 3.32215V1.7877C18.8698 1.98469 21.5924 3.17865 23.7168 5.04018L22.8076 5.94943C22.4644 6.29268 22.4644 6.84914 22.8076 7.19238C23.1507 7.53562 23.7073 7.53568 24.0506 7.19238L24.9598 6.28312C26.8213 8.4075 28.0153 11.1302 28.2123 14.1211H26.0919C25.6065 14.1211 25.213 14.5146 25.213 15C25.213 15.4854 25.6065 15.8789 26.0919 15.8789Z" fill="#007697"/>
<path d="M20.546 14.1212H15.8789V6.83789C15.8789 6.3525 15.4854 5.95898 15 5.95898C14.5146 5.95898 14.1211 6.3525 14.1211 6.83789V15.0001C14.1211 15.4855 14.5146 15.879 15 15.879H20.546C21.0313 15.879 21.4249 15.4855 21.4249 15.0001C21.4249 14.5147 21.0314 14.1212 20.546 14.1212Z" fill="#007697"/>
</svg>
