<svg width="30" height="30" viewBox="0 0 30 30" fill="none" xmlns="http://www.w3.org/2000/svg">
<path d="M25.5669 4.35654C22.7459 1.54884 18.9932 0.00160218 14.9993 0C11.0143 0 7.25566 1.54587 4.41617 4.35287C1.57164 7.16469 0.00366563 10.9014 0 14.8611V14.8684C0.000458204 17.265 0.630718 19.6827 1.82709 21.8896L0.0410093 30L8.25271 28.1339C10.3325 29.1811 12.6531 29.7331 14.9936 29.734H14.9995C18.9839 29.734 22.7425 28.1879 25.5825 25.3807C28.4295 22.5666 29.9982 18.8347 30 14.8725C30.0011 10.9383 28.427 7.2036 25.5669 4.35654ZM14.9993 27.3926H14.994C12.8925 27.3917 10.8102 26.8645 8.97255 25.8678L8.58422 25.6572L3.12381 26.898L4.30987 21.5128L4.08122 21.1189C2.94442 19.1604 2.34371 16.9984 2.34371 14.8659C2.34807 7.96349 8.02476 2.34146 14.9989 2.34146C18.368 2.34283 21.5338 3.64769 23.9128 6.01524C26.3277 8.41942 27.6572 11.5647 27.6561 14.8718C27.6533 21.7758 21.9755 27.3926 14.9993 27.3926Z" fill="#007697"/>
<path d="M10.9179 8.3123H10.2603C10.0315 8.3123 9.65986 8.3979 9.34553 8.73962C9.03097 9.08157 8.14458 9.90807 8.14458 11.589C8.14458 13.2699 9.37417 14.894 9.54554 15.1222C9.71713 15.3502 11.919 18.9098 15.4064 20.2792C18.3048 21.4172 18.8947 21.1908 19.5236 21.1338C20.1527 21.077 21.5537 20.3075 21.8396 19.5099C22.1255 18.7122 22.1255 18.0283 22.0398 17.8855C21.9539 17.7431 21.7251 17.6578 21.3821 17.487C21.0389 17.3161 19.3573 16.4756 19.0427 16.3614C18.7282 16.2476 18.4995 16.1906 18.2707 16.5328C18.0418 16.8743 17.368 17.6644 17.1678 17.8924C16.9678 18.1206 16.7675 18.1492 16.4243 17.9782C16.0811 17.8068 14.9874 17.4396 13.6767 16.276C12.6565 15.3703 11.9486 14.2154 11.7484 13.8734C11.5483 13.5317 11.727 13.3468 11.8991 13.1763C12.0533 13.0234 12.2615 12.8142 12.4331 12.6148C12.6045 12.4152 12.6533 12.2729 12.7679 12.0449C12.8822 11.8169 12.8249 11.6174 12.7392 11.4466C12.6533 11.2756 11.9949 9.58626 11.6897 8.9106H11.6899C11.4329 8.3416 11.1623 8.32237 10.9179 8.3123Z" fill="#007697"/>
</svg>
