<?xml version="1.0" encoding="UTF-8"?>
<svg width="30px" height="22px" viewBox="0 0 30 22" version="1.1" xmlns="http://www.w3.org/2000/svg" xmlns:xlink="http://www.w3.org/1999/xlink">
    <!-- Generator: Sketch 51.2 (57519) - http://www.bohemiancoding.com/sketch -->
    <title>black-envelope</title>
    <desc>Created with Sketch.</desc>
    <defs></defs>
    <g id="Page-1" stroke="none" stroke-width="1" fill="none" fill-rule="evenodd">
        <g id="home" transform="translate(-462.000000, -4153.000000)" fill="#0B7C8A" fill-rule="nonzero">
            <g id="Карта" transform="translate(0.000000, 3738.000000)">
                <g id="Контактная-информация" transform="translate(130.000000, 371.000000)">
                    <g id="Почта" transform="translate(300.000000, 0.000000)">
                        <g id="black-envelope" transform="translate(32.000000, 44.000000)">
                            <path d="M2.36035714,1.42607143 L13.1110714,9.94178571 C13.5985714,10.3275 14.2703571,10.4989286 14.9228571,10.4667857 C15.5742857,10.4989286 16.2460714,10.3285714 16.7335714,9.94178571 L27.4842857,1.42607143 C28.3457143,0.747857143 28.1507143,0.191785714 27.0578571,0.191785714 L14.9239286,0.191785714 L2.79,0.191785714 C1.69607143,0.191785714 1.50107143,0.747857143 2.36035714,1.42607143 Z" id="Shape"></path>
                            <path d="M28.2610714,3.67285714 L16.5128571,12.5925 C16.0735714,12.9225 15.4982143,13.0832143 14.925,13.0757143 C14.3507143,13.0832143 13.7753571,12.9214286 13.3360714,12.5925 L1.58571429,3.67285714 C0.713571429,3.01178571 0,3.36642857 0,4.46035714 L0,19.095 C0,20.1889286 0.895714286,21.0846429 1.98964286,21.0846429 L14.9228571,21.0846429 L27.8571429,21.0846429 C28.9510714,21.0846429 29.8467857,20.1889286 29.8467857,19.095 L29.8467857,4.46035714 C29.8467857,3.36642857 29.1332143,3.01178571 28.2610714,3.67285714 Z" id="Shape"></path>
                        </g>
                    </g>
                </g>
            </g>
        </g>
    </g>
</svg>