<?xml version="1.0" encoding="UTF-8"?>
<svg width="40px" height="40px" viewBox="0 0 40 40" version="1.1" xmlns="http://www.w3.org/2000/svg" xmlns:xlink="http://www.w3.org/1999/xlink">
    <!-- Generator: Sketch 51.2 (57519) - http://www.bohemiancoding.com/sketch -->
    <title>clock</title>
    <desc>Created with Sketch.</desc>
    <defs></defs>
    <g id="Page-1" stroke="none" stroke-width="1" fill="none" fill-rule="evenodd">
        <g id="home" transform="translate(-530.000000, -130.000000)" fill="#0B7C8A" fill-rule="nonzero">
            <g id="Шапка-сайта">
                <g id="График-работы" transform="translate(530.000000, 105.000000)">
                    <g id="clock" transform="translate(0.000000, 25.000000)">
                        <path d="M38.4033987,12.2144444 C36.2945098,7.29777778 32.7108497,3.72202614 27.7531373,1.6075817 C25.2752288,0.550784314 22.6792157,0.0109803922 19.9671242,0.0109803922 C17.2554902,0.0109803922 14.6786275,0.545686275 12.2034641,1.6075817 C7.28679739,3.71640523 3.6872549,7.28986928 1.57464052,12.2144444 C0.516013072,14.681634 0,17.2664052 0,19.9780392 C0,22.6901961 0.516013072,25.2964052 1.57464052,27.7641176 C3.6872549,32.6886928 7.2872549,36.2835948 12.2034641,38.3929412 C14.679085,39.4548366 17.2554248,39.9890196 19.9671242,39.9890196 C22.6788235,39.9890196 25.2752288,39.4492157 27.7527451,38.3929412 C32.7104575,36.2784314 36.2941176,32.6803268 38.4034641,27.7641176 C39.4652941,25.2884967 40,22.6901961 40,19.9780392 C40,17.2664052 39.4657516,14.69 38.4033987,12.2144444 Z M35.210719,28.8139216 C33.640719,31.5064052 31.4898693,33.6424183 28.7809804,35.2216993 C26.0884967,36.7916993 23.138366,37.5834641 19.9675817,37.5834641 C17.5839216,37.5834641 15.3094118,37.1243791 13.1440523,36.1837908 C10.9787582,35.2436601 9.10921569,34.0077124 7.54529412,32.4442484 C5.98137255,30.8803268 4.73660131,28.992549 3.80581699,26.8235294 C2.87777778,24.6624183 2.42803922,22.3622222 2.42803922,19.9781046 C2.42803922,16.8068627 3.20718954,13.8716993 4.76836601,11.1866667 C6.33509804,8.49183007 8.48640523,6.35352941 11.1761438,4.77882353 C13.8654248,3.20418301 16.7964052,2.41660131 19.9671242,2.41660131 C23.138366,2.41660131 26.0879739,3.20882353 28.7805229,4.77882353 C31.4894118,6.35816993 33.6356209,8.49640523 35.2102614,11.1866013 C36.784902,13.8763399 37.5720261,16.8068627 37.5720261,19.9780392 C37.5720261,23.1493464 36.7900654,26.1045098 35.210719,28.8139216 Z" id="Shape"></path>
                        <path d="M21.2356863,19.8031373 L21.2356863,8.47444444 C21.2356863,7.79653595 20.6450327,7.24973856 19.9670588,7.24973856 C19.3330065,7.24973856 18.7642484,7.79653595 18.7642484,8.47444444 L18.7642484,19.9780392 C18.7642484,20 18.8081046,20.0877124 18.8081046,20.1530719 C18.7642484,20.5467974 18.8739216,20.8748366 19.1361438,21.1375163 L25.6755556,27.6764706 C26.1131373,28.1140523 26.9221569,28.1140523 27.3594118,27.6764706 C27.8622876,27.1735294 27.8292157,26.4437908 27.3594118,25.9706536 L21.2356863,19.8031373 Z" id="Shape"></path>
                    </g>
                </g>
            </g>
        </g>
    </g>
</svg>