<svg width="133" height="15" viewBox="0 0 133 15" fill="none" xmlns="http://www.w3.org/2000/svg">
<path fill-rule="evenodd" clip-rule="evenodd" d="M32.595 2.25447L27.7685 12.6689H28.5673L29.8728 9.77296H35.985L37.301 12.6653H38.1468L33.3203 2.25138L32.5955 2.25498L32.595 2.25447ZM30.2083 9.07081L32.9509 3.09437L35.673 9.07081H30.2083ZM52.3618 5.25785C52.3655 4.89834 52.2983 4.54154 52.1641 4.20721C52.03 3.8731 51.8312 3.56932 51.5797 3.31231C50.9587 2.69395 49.9418 2.30433 48.6697 2.30433H44.3331V12.6191H45.1017V8.34554H48.485L51.778 12.6191H52.7547L49.3412 8.21138C51.0835 7.97648 52.3624 6.98854 52.3624 5.26505V5.25837L52.3618 5.25785ZM45.0949 7.64648V3.02395H48.6258C50.5022 3.02395 51.5964 3.89417 51.5964 5.27841C51.5964 6.79681 50.3107 7.66704 48.5752 7.66704L45.0944 7.64699L45.0949 7.64648ZM67.3084 2.30124H66.2612L59.6721 9.07081V2.30176H58.9035V12.6191H59.6721V9.99501L62.2434 7.39153L66.496 12.6088H67.503L62.8038 6.84719L67.3084 2.30176V2.30124ZM87.1921 3.02343H90.7971V12.6319H91.5657V3.02395H95.1671V2.30176H87.1921V3.02395V3.02343ZM101.347 12.6319H102.115V2.30176H101.347V12.6324V12.6319ZM116.155 11.2883L109.019 2.30176H108.295V12.6191H109.033V3.45058L116.317 12.6191H116.894V2.30176H116.155V11.2888V11.2883ZM127.95 7.25686V7.92867H131.307V10.8077C130.408 11.5368 129.283 11.9411 128.118 11.9534C125.433 11.9534 123.829 10.0217 123.829 7.42802C123.829 4.97874 125.53 2.9196 127.96 2.9196C128.551 2.8999 129.139 2.9961 129.691 3.2026C130.243 3.4091 130.748 3.72177 131.176 4.1224L131.663 3.56469C130.658 2.67031 129.348 2.19793 128.004 2.24419C125.017 2.24419 123.057 4.72379 123.057 7.42802C123.057 10.2767 124.93 12.6119 128.091 12.6119C129.545 12.5992 130.944 12.064 132.025 11.1068V7.25017L127.95 7.25686ZM73.6554 3.04091H81.0397V2.29816H73.6554V3.0404V3.04091ZM78.7809 7.11602H73.6554V7.85157H78.7809V7.11602ZM73.6554 12.6191H81.0397V11.8835H73.6554V12.6191ZM17.1183 0L13.7016 5.85925L10.3012 0H6.17957V8.70483C7.45585 9.83412 8.83598 10.8395 10.3012 11.7082V7.39101L13.5169 12.7666H13.8863L17.1188 7.39101V14.3924H21.2206V0H17.1188H17.1183Z" fill="#B5B5B5"/>
<path fill-rule="evenodd" clip-rule="evenodd" d="M4.12163 6.6354V0H0C0.987751 2.42974 2.38198 4.67341 4.12163 6.6354Z" fill="#B5B5B5"/>
<path fill-rule="evenodd" clip-rule="evenodd" d="M0 8.35156V14.3992H4.12158V11.1973C2.67303 10.3583 1.29479 9.40668 0 8.35156H0ZM6.1795 12.2891V14.3925H10.3011V13.9391C8.89069 13.4857 7.51318 12.9347 6.1795 12.2896V12.2891Z" fill="#B5B5B5"/>
</svg>
