<?xml version="1.0" encoding="utf-8"?>
<!-- Generator: Adobe Illustrator 22.0.1, SVG Export Plug-In . SVG Version: 6.00 Build 0)  -->
<svg version="1.1" xmlns="http://www.w3.org/2000/svg" xmlns:xlink="http://www.w3.org/1999/xlink" x="0px" y="0px"
	 viewBox="0 0 971.8 347.8" style="enable-background:new 0 0 971.8 347.8;" xml:space="preserve">
<style type="text/css">
	.st0{fill-rule:evenodd;clip-rule:evenodd;fill:#2A2A28;}
	.st1{fill-rule:evenodd;clip-rule:evenodd;fill:#0B7C8A;}
	.st2{fill-rule:evenodd;clip-rule:evenodd;fill:#A7FDF0;}
	.st3{enable-background:new    ;}
	.st4{opacity:0.502;enable-background:new    ;}
	.st5{fill-rule:evenodd;clip-rule:evenodd;}
</style>
<g id="Группа_1_1_">
	<g id="L">
		<g>
			<polygon class="st0" points="671.3,243.4 671.3,90.7 637.2,90.7 637.2,276 713.8,276 713.8,243.4 			"/>
		</g>
	</g>
	<g id="S">
		<g>
			<path class="st0" d="M445.6,212c-0.1,0-0.2-0.1-0.2-0.1S445.5,211.9,445.6,212z M436.3,91.2c-54.7,0-52.8,41-52.8,48.5
				s-1.2,27.6,3.8,35.5c5.1,7.9,7.1,13.1,44.4,29.5c3.1,1.4,5.7,2.5,8,3.6l-0.1,0c0,0,3.9,1.6,7.2,4.1c-0.6-0.2-1-0.4-1.2-0.5
				c0.5,0.2,2.2,1,3.8,2.9c0.2,0.2,0.3,0.4,0.4,0.5c0,0,0.1,0.1,0.1,0.1c0.4,0.6,0.8,1.2,1.1,1.9c0.2,0.5,0.4,0.9,0.7,1.2
				c1.3,3.1,1.9,7.6,0.8,14c-3.1,17.4-23.2,13.5-26.2,12.4c-3-1.2-11-2.6-10.3-25.2h-32.6v13c0,0,1.7,43.2,49.7,43.2
				c48,0,53.5-34.8,53.5-43.3c0-8.5,0-15.2,0-15.2s-0.5-9.1-1.9-12.7c-1.4-3.6-9-15.5-26.9-23.8c-17.9-8.3-30-14.6-30-14.6
				s-9.6-4-10.3-14.2c-0.7-10.2-1.5-16.9,3.6-25.9c5.1-9,24.5-5.9,28.1-0.2c3.6,5.6,4.6,9.2,4.6,13s0,22.3,0,22.3h32.9v-21.6
				C486.5,139.7,491,91.2,436.3,91.2z"/>
		</g>
	</g>
	<g id="O">
		<g>
			<path class="st0" d="M562.1,247c-10,0-14.7-6-16.8-10.3h-35.6c0,0,5.1,39.4,52.7,39.4c47.6,0,51.7-39.4,51.7-39.4h-35.7
				C576.6,241,572.1,247,562.1,247z M614.1,129.8c-0.5-3.9-6.7-38.9-51.7-38.9c-45,0-52,34.9-52.6,38.9h-0.1v106.8h35.6
				c-0.8-1.7-1.2-3.2-1.4-3.8h-0.1v-98.4c0,0,2.6-14.6,18.2-14.6c15.1,0,17.6,13.8,17.8,14.6h0v98.4h-0.1c-0.1,0.7-0.5,2.1-1.3,3.8
				h35.7L614.1,129.8L614.1,129.8z"/>
		</g>
	</g>
	<g id="H">
		<g>
			<polygon class="st0" points="69.6,3.8 69.6,86.2 34.1,86.2 34.1,3.8 0,3.8 0,181.7 34.1,181.7 34.1,115.7 69.6,115.7 69.6,181.7 
				103.7,181.7 103.7,3.8 			"/>
		</g>
	</g>
	<g id="A">
		<g>
			<path class="st0" d="M202.4,181.7h31.8L218.6,39.1h0.1l-1.4-13.2c0,0-4.7-22.9-30.4-24.8c3-0.1,4.1-0.1-3.1-0.1
				c-0.1,0-0.2,0-0.4,0c-0.4,0-0.8,0-1.2,0v0h-5v0c-0.6,0-1.1,0-1.7,0c-0.1,0-0.2,0-0.4,0C167.8,1,169,1,172,1.1
				c-25.7,1.9-30.4,24.8-30.4,24.8l-1.4,13.2h0.1l-15.7,142.6h31.8l4.6-41.5h36.9L202.4,181.7z M172.1,38.6L172.1,38.6
				c0-0.2,0-0.5,0.1-0.8C172.1,38.2,172.1,38.4,172.1,38.6z M164.1,111.4l7.9-72.3c0,0,0,0,0,0l0.9-4.3c0.9-2.4,2.7-4.8,6.4-4.8
				c3.6,0,5.5,2.4,6.4,4.8l0.9,4.3c0,0,0-0.7-0.2-1.8c0.2,1,0.2,1.8,0.2,1.8h0.1l7.9,72.2H164.1z"/>
		</g>
	</g>
	<g id="Фигура_1_копия">
		<g>
			<path class="st1" d="M358.6,42.5c-0.1-5.5-2.7-41.2-51.7-41.5v0c-0.1,0-0.2,0-0.3,0c-0.1,0-0.2,0-0.3,0v0
				c-49.2,0.3-51.7,36-51.8,41.5h0v0c0,0.5,0,0.7,0,0.7V276h34.3V43.2c0-13.6,14.5-13.4,17.5-13.2v0c0,0,0.1,0,0.3,0
				c0.2,0,0.3,0,0.3,0v0c3-0.2,16.9-0.3,17.5,12.5h0V276h34.3L358.6,42.5L358.6,42.5z"/>
		</g>
	</g>
	<g id="Прямоугольник_1">
		<g>
			<rect x="371.8" y="14.2" class="st2" width="339.1" height="26.9"/>
		</g>
	</g>
	<g id="Прямоугольник_1_копия">
		<g>
			<rect x="0" y="249.1" class="st2" width="240.2" height="26.9"/>
		</g>
	</g>
</g>
<g id="Фигура_2_1_" class="st3">
	<g id="Фигура_2">
		<g>
			<path class="st1" d="M962.9,166.3c-0.1-9-4.1-16.8-4.1-16.8c-17.9,22.2-31.2,30.5-31.2,30.5c-47.2,38.1-180.7,33.1-180.7,33.1
				c9.2,18.1,44.5,59.1,107.5,58.6s95-43.7,95-43.7h-23.5c-45.6,35.3-62,28.2-88.1,27.1c-26.1-1.1-50.6-22.3-50.6-22.3
				c21.9-0.1,89.8-13.9,89.8-13.9C957.5,196,962.9,166.3,962.9,166.3z"/>
		</g>
	</g>
</g>
<g id="Фигура_4_1_" class="st3">
	<g id="Фигура_4">
		<g>
			<path class="st1" d="M933.4,78c-14.6,22-15.9,31.2-48.5,51.6c-32.6,20.4-60.6,27.3-81.6,32.4c-21,5.1-45.1,3.8-45.1,3.8
				c-0.7-4.9,0.9-28,1.2-34.3c0.3-6.3,2.6-16.7,2.4-19.4c-0.2-2.7-4,2.4-5.3,5c-1.3,2.7-5.3,16.8-8.4,31.7
				c-3.1,14.9-2.4,36.5-2.4,36.5s2.1,1.1,17.3,2.4c15.2,1.3,27.7,0,56.6-6.2s46.4-16,77.5-34.6c31.1-18.5,43.7-52.6,43.7-52.6
				C939.4,88.9,933.4,78,933.4,78z"/>
		</g>
	</g>
</g>
<g id="Фигура_3_1_" class="st4">
	<g id="Фигура_3">
		<g>
			<path class="st2" d="M962.9,167.3c-2.3,3.6-11,15.6-11,15.6l-3.6,15.4c-39.8,1.6-64.1-5.7-98.9-13.9
				c-34.8-8.3-54.5-28.8-64.6-37.7c-10-8.9-18.6-24.3-20.9-30.2s-2.3-6.7-5.8-3.1c-3.4,3.6-8.2,25.2-8.2,25.2s-4.2-1.9,19,24.7
				c23.2,26.7,51.8,33,96.5,45.6s92.6,4.3,92.6,4.3C965.6,196.2,962.9,167.3,962.9,167.3z"/>
		</g>
	</g>
</g>
<g id="Фигура_6_1_" class="st3">
	<g id="Фигура_6">
		<g>
			<path class="st1" d="M899.3,28.3c0,0,2.2,14.6-35.5,38.4c-37.7,23.8-85.4,36.2-85.4,36.2c-0.9-2.2,2.1-21.9,4.6-31
				s7.5-15.6,3.6-14.2c-3.9,1.4-8.3,9.8-13.2,23.5s-3.8,36.7-3.8,36.7c8.4,0.5,24.3-3.1,41.5-9.4s53.4-23.5,75.4-38.6
				s23.5-30,23.5-30C908.9,37.3,899.3,28.3,899.3,28.3z"/>
		</g>
	</g>
</g>
<g id="Фигура_5_1_" class="st4">
	<g id="Фигура_5">
		<g>
			<path class="st2" d="M947.1,122.7c-0.9-9.8-3-19.4-6.3-28.6c-3,6.2-6.1,12.5-9.1,18.7c2.6,14.1,0.2,28.3,0.2,28.3
				c-48.1-3.5-66.2-17.4-91.2-31.7c-13-7.5-44.3-35.4-48.7-44.6c-4.4-9.3-5-9.3-9.8-2.9c-4.9,6.4-8.2,17.3-8.2,17.3
				c1.4,3.8,9.2,13.2,18,23.5s25.6,20.7,61.4,38.2c35.8,17.5,91.4,17,91.4,17C947.4,146.3,948.1,134.5,947.1,122.7z"/>
		</g>
	</g>
</g>
<g id="Фигура_7_1_" class="st3">
	<g id="Фигура_7">
		<g>
			<path class="st1" d="M894.5,23c-1-0.6-16.5-20.7-44.4-17.3c-27.9,3.4-44.6,25-44.6,25c0.7,1,1.3,1.9,1.9,2.9
				c2.2,3.3,3.6,5.8,6.2,8.6c0.5,0.5,0.9,1,1.4,1.4c4.4-15.5,16.7-26.9,31.4-29.5c11.6-2,23.2,1.5,32.2,8.9
				C878.6,23,895.5,23.7,894.5,23z"/>
		</g>
	</g>
</g>
<g id="Фигура_8_1_" class="st4">
	<g id="Фигура_8">
		<g>
			<path class="st2" d="M909.8,40.1c0,0-2.4,8.8-5.5,12.5c0,0,3.9,9.8,3.4,23c0,0-12.5-1.5-23.5-6.2c-11-4.8-22.5-11.8-38.2-22.3
				c-15.7-10.5-21.5-15-24.7-20.6c-3.2-5.6-2.4-4.9-2.7-7.8c0,0-9.8,6.8-13.4,12.2c0,0,9,18.2,35.8,32.9
				c26.8,14.7,69.8,28.4,78.5,26.2C919.4,89.8,926.1,64.5,909.8,40.1z"/>
		</g>
	</g>
</g>
<g id="South_1_" class="st3">
	<g id="South">
		<g>
			<path class="st5" d="M24.8,327.2c-1.5-0.7-4.2-1.5-8.2-2.4c-4-0.9-6.4-1.8-7.4-2.6c-1-0.9-1.4-2-1.4-3.3c0-1.5,0.7-2.8,2-3.9
				c1.4-1.1,3.5-1.6,6.5-1.6c2.8,0,5,0.6,6.5,1.8c1.5,1.2,2.3,3,2.6,5.3l4.7-0.4c-0.1-2.2-0.7-4.1-1.8-5.8c-1.1-1.7-2.7-3-4.8-3.9
				c-2.1-0.9-4.5-1.3-7.3-1.3c-2.5,0-4.8,0.4-6.8,1.3c-2,0.8-3.6,2.1-4.7,3.7c-1.1,1.6-1.6,3.4-1.6,5.2c0,1.7,0.4,3.2,1.3,4.6
				c0.9,1.4,2.2,2.5,4,3.5c1.4,0.7,3.7,1.5,7.2,2.3c3.4,0.8,5.6,1.4,6.6,1.8c1.6,0.6,2.7,1.3,3.3,2.2c0.7,0.9,1,1.9,1,3
				c0,1.1-0.3,2.2-1,3.2c-0.7,1-1.8,1.7-3.2,2.3c-1.4,0.6-3.1,0.8-5,0.8c-2.1,0-4-0.4-5.7-1.1c-1.7-0.7-2.9-1.7-3.7-2.9
				c-0.8-1.2-1.3-2.7-1.5-4.6l-4.6,0.4c0.1,2.5,0.7,4.7,2,6.7c1.3,2,3.1,3.4,5.3,4.4c2.3,1,5.1,1.5,8.4,1.5c2.6,0,5-0.5,7.1-1.5
				c2.1-1,3.7-2.3,4.9-4.1c1.1-1.7,1.7-3.6,1.7-5.6c0-2-0.5-3.7-1.5-5.3C28.5,329.5,26.9,328.2,24.8,327.2z M74.7,311.5
				c-2.7-1.6-5.8-2.5-9.3-2.5c-5.2,0-9.5,1.7-12.8,5.2c-3.3,3.5-5,8.3-5,14.4c0,3.3,0.7,6.3,2.1,9.3c1.4,2.9,3.5,5.2,6.2,6.9
				c2.7,1.7,5.9,2.5,9.4,2.5c3.2,0,6.2-0.8,9-2.3c2.8-1.5,4.9-3.8,6.4-6.7c1.5-3,2.3-6.3,2.3-10.1c0-3.7-0.7-7-2.2-9.9
				C79.5,315.4,77.4,313.1,74.7,311.5z M74.5,339.3c-2.4,2.6-5.4,3.9-9.1,3.9c-3.6,0-6.6-1.3-9-3.9c-2.4-2.6-3.6-6.1-3.6-10.6
				c0-5.6,1.3-9.6,3.8-11.9c2.5-2.4,5.5-3.6,9-3.6c2.4,0,4.6,0.6,6.6,1.9c2,1.2,3.5,3,4.5,5.2c1,2.2,1.5,4.9,1.5,7.9
				C78.1,333,76.9,336.7,74.5,339.3z M125.2,331.1c0,4.7-0.8,7.8-2.3,9.4c-1.5,1.6-4.1,2.5-7.7,2.5c-2.1,0-3.9-0.4-5.3-1.2
				c-1.5-0.8-2.5-2-3.1-3.5c-0.6-1.5-0.9-3.9-0.9-7.1v-21.4h-4.9v21.4c0,3.9,0.5,7,1.4,9.3c0.9,2.3,2.5,4,4.7,5.2
				c2.2,1.2,5,1.8,8.5,1.8c3.6,0,6.5-0.7,8.7-2.1c2.2-1.4,3.7-3.2,4.6-5.3c0.8-2.2,1.3-5.1,1.3-8.9v-21.4h-4.9V331.1z M146.8,314.1
				H159v32.7h4.9v-32.7h12.3v-4.4h-29.4V314.1z M216.9,309.7v15.2h-19.3v-15.2h-4.9v37.1h4.9v-17.5h19.3v17.5h4.9v-37.1H216.9z"/>
		</g>
	</g>
</g>
<g id="korean_1_" class="st3">
	<g id="korean">
		<g>
			<path class="st5" d="M284.5,309.3h-6.6l-18.4,18.4v-18.4h-4.9v37.1h4.9v-12.8l6.1-5.9l13.2,18.8h6.5l-16.2-22L284.5,309.3z
				 M326.1,311.1c-2.7-1.6-5.8-2.5-9.3-2.5c-5.2,0-9.5,1.7-12.8,5.2c-3.3,3.5-5,8.3-5,14.4c0,3.3,0.7,6.3,2.1,9.3
				c1.4,2.9,3.5,5.2,6.2,6.9c2.7,1.7,5.9,2.5,9.4,2.5c3.2,0,6.2-0.8,9-2.3c2.8-1.5,4.9-3.8,6.4-6.7c1.5-3,2.3-6.3,2.3-10.1
				c0-3.7-0.7-7-2.2-9.9C331,315,328.9,312.7,326.1,311.1z M326,338.9c-2.4,2.6-5.4,3.9-9.1,3.9c-3.6,0-6.6-1.3-9-3.9
				c-2.4-2.6-3.6-6.1-3.6-10.6c0-5.6,1.3-9.6,3.8-11.9c2.5-2.4,5.5-3.6,9-3.6c2.4,0,4.6,0.6,6.6,1.9c2,1.2,3.5,3,4.5,5.2
				c1,2.2,1.5,4.9,1.5,7.9C329.5,332.6,328.3,336.3,326,338.9z M374.5,331.3c-0.7-0.6-1.7-1.2-3-1.8c3.6-0.5,6.2-1.6,7.9-3.4
				c1.7-1.8,2.6-4,2.6-6.6c0-2-0.5-3.9-1.5-5.6c-1-1.7-2.4-2.9-4.1-3.5c-1.7-0.7-4.2-1-7.5-1h-16.4v37.1h4.9v-16.5h5.7
				c1.3,0,2.2,0.1,2.7,0.2c0.8,0.2,1.5,0.5,2.2,1c0.7,0.5,1.6,1.3,2.5,2.5c0.9,1.2,2.1,2.9,3.5,5.1l4.9,7.7h6.2l-6.4-10.1
				C377.3,334.3,375.9,332.6,374.5,331.3z M367.8,325.6h-10.5v-12.3H369c2.7,0,4.8,0.6,6,1.7c1.3,1.1,1.9,2.6,1.9,4.3
				c0,1.2-0.3,2.3-1,3.3c-0.7,1-1.6,1.8-2.9,2.2C371.8,325.4,370,325.6,367.8,325.6z M406.1,329.3h20.5V325h-20.5v-11.3h21.9v-4.4
				h-26.8v37.1h27.6v-4.4h-22.7V329.3z M457.1,309.3l-14.2,37.1h5.2l4.1-11.2h15.5l4.3,11.2h5.6l-15.2-37.1H457.1z M453.6,331.1
				l4.1-10.9c0.9-2.3,1.5-4.7,2-7.1c0.6,2,1.4,4.6,2.6,7.7l3.9,10.3H453.6z M517.3,309.3v29.1l-19.5-29.1h-5v37.1h4.7v-29.1
				l19.5,29.1h5v-37.1H517.3z"/>
		</g>
	</g>
</g>
<g id="Medcenter_1_" class="st3">
	<g id="Medcenter">
		<g>
			<path class="st5" d="M577.4,335c-0.9,2.6-1.6,4.6-2,5.9c-0.4-1.2-1-3-1.8-5.5l-8.8-26.2h-7.4v37.1h4.7v-31.5l10.7,31.5h4.4
				l10.8-31v31h4.7v-37.1h-6.6L577.4,335z M617.1,329.3h20.5V325h-20.5v-11.3H639v-4.4h-26.8v37.1h27.6v-4.4h-22.7V329.3z
				 M682.8,312.5c-1.5-1.3-3.3-2.2-5.4-2.7c-1.5-0.4-3.7-0.5-6.6-0.5H658v37.1h13.4c2.2,0,4.2-0.2,6-0.6c1.7-0.4,3.2-1,4.4-1.9
				c1.2-0.8,2.3-1.9,3.4-3.4c1-1.4,1.9-3.2,2.5-5.4s1-4.7,1-7.5c0-3.3-0.5-6.2-1.5-8.8C686.2,316.2,684.8,314.1,682.8,312.5z
				 M682.6,334.7c-0.6,2-1.6,3.5-2.7,4.7c-0.8,0.8-1.9,1.5-3.3,1.9c-1.4,0.5-3.3,0.7-5.7,0.7h-7.9v-28.3h7.8c2.9,0,5,0.3,6.3,0.8
				c1.8,0.7,3.4,2.1,4.6,4.2c1.3,2.1,1.9,5.1,1.9,8.9C683.6,330.3,683.3,332.7,682.6,334.7z M729.4,340.4c-1.9,1.6-4.2,2.4-7,2.4
				c-2.3,0-4.4-0.6-6.3-1.7c-1.9-1.2-3.4-2.9-4.3-5.3c-0.9-2.4-1.4-5.1-1.4-8.3c0-2.4,0.4-4.8,1.2-7.1c0.8-2.3,2.1-4.1,4-5.5
				c1.9-1.4,4.3-2,7.1-2c2.5,0,4.5,0.6,6.2,1.8c1.6,1.2,2.9,3.2,3.7,5.9l4.8-1.1c-1-3.4-2.8-6.1-5.3-8c-2.5-1.9-5.6-2.8-9.4-2.8
				c-3.3,0-6.3,0.7-9,2.2c-2.7,1.5-4.8,3.7-6.3,6.5c-1.5,2.9-2.2,6.2-2.2,10.1c0,3.5,0.7,6.8,2,9.9c1.3,3.1,3.2,5.4,5.7,7.1
				c2.5,1.6,5.7,2.4,9.7,2.4c3.9,0,7.1-1.1,9.8-3.2c2.7-2.1,4.5-5.2,5.5-9.2l-4.9-1.2C732.6,336.4,731.3,338.8,729.4,340.4z
				 M760.6,329.3h20.5V325h-20.5v-11.3h21.9v-4.4h-26.8v37.1h27.6v-4.4h-22.7V329.3z M825.9,338.4l-19.5-29.1h-5v37.1h4.7v-29.1
				l19.5,29.1h5v-37.1h-4.7V338.4z M847.5,313.6h12.2v32.7h4.9v-32.7h12.3v-4.4h-29.4V313.6z M898.2,329.3h20.5V325h-20.5v-11.3
				h21.9v-4.4h-26.8v37.1H921v-4.4h-22.7V329.3z M965.4,336.2c-1.3-2-2.6-3.6-4.1-4.9c-0.7-0.6-1.7-1.2-3-1.8
				c3.6-0.5,6.2-1.6,7.9-3.4c1.7-1.8,2.6-4,2.6-6.6c0-2-0.5-3.9-1.5-5.6c-1-1.7-2.4-2.9-4.1-3.5c-1.7-0.7-4.2-1-7.5-1h-16.4v37.1
				h4.9v-16.5h5.7c1.3,0,2.2,0.1,2.7,0.2c0.8,0.2,1.5,0.5,2.2,1c0.7,0.5,1.6,1.3,2.5,2.5c0.9,1.2,2.1,2.9,3.5,5.1l4.9,7.7h6.2
				L965.4,336.2z M954.7,325.6h-10.5v-12.3h11.7c2.7,0,4.8,0.6,6,1.7c1.3,1.1,1.9,2.6,1.9,4.3c0,1.2-0.3,2.3-1,3.3
				c-0.7,1-1.6,1.8-2.9,2.2C958.7,325.4,956.9,325.6,954.7,325.6z"/>
		</g>
	</g>
</g>
</svg>
