<?xml version="1.0" encoding="UTF-8"?>
<svg width="40px" height="41px" viewBox="0 0 40 41" version="1.1" xmlns="http://www.w3.org/2000/svg" xmlns:xlink="http://www.w3.org/1999/xlink">
    <!-- Generator: Sketch 51.2 (57519) - http://www.bohemiancoding.com/sketch -->
    <title>phone-call</title>
    <desc>Created with Sketch.</desc>
    <defs></defs>
    <g id="Page-1" stroke="none" stroke-width="1" fill="none" fill-rule="evenodd">
        <g id="home" transform="translate(-794.000000, -130.000000)" fill="#0B7C8A" fill-rule="nonzero">
            <g id="Шапка-сайта">
                <g id="Телефоны" transform="translate(794.000000, 105.000000)">
                    <g id="phone-call" transform="translate(0.000000, 25.000000)">
                        <path d="M31.9889042,25.6518817 C31.1594927,24.7921147 30.1590685,24.3324373 29.0987899,24.3324373 C28.0470619,24.3324373 27.0380871,24.7836022 26.174473,25.6433692 L23.4724727,28.3248208 C23.2501562,28.2056452 23.0278397,28.0949821 22.8140738,27.984319 C22.506251,27.8310932 22.2155295,27.6863799 21.9675611,27.5331541 C19.4365734,25.9327957 17.1364528,23.8472222 14.9303892,21.1487455 C13.8615599,19.8037634 13.1433067,18.671595 12.621718,17.5224014 C13.32287,16.8839606 13.9727182,16.2199821 14.6054651,15.5815412 C14.8448829,15.34319 15.0843006,15.0963262 15.3237184,14.8579749 C17.1193515,13.0703405 17.1193515,10.7549283 15.3237184,8.96729391 L12.9893953,6.64336918 C12.7243256,6.37948029 12.4507053,6.10707885 12.1941863,5.83467742 C11.6811482,5.30689964 11.1424583,4.76209677 10.5866671,4.25134409 C9.75725557,3.43413978 8.76538201,3 7.72220465,3 C6.67902729,3 5.67005247,3.43413978 4.81498906,4.25134409 C4.80643842,4.25985663 4.80643842,4.25985663 4.79788779,4.26836918 L1.89067219,7.18817204 C0.796191029,8.27777778 0.17199474,9.60573477 0.0351845945,11.1465054 C-0.170030624,13.6321685 0.565323909,15.9475806 1.12966576,17.4628136 C2.51486848,21.1827957 4.58412194,24.6303763 7.67090085,28.3248208 C11.4160786,32.7768817 15.9222628,36.2925627 21.0697445,38.7697133 C23.0363903,39.6975806 25.661435,40.7956989 28.5943025,40.9829749 C28.7738658,40.9914875 28.9619798,41 29.1329924,41 C31.1081889,41 32.7670119,40.2934588 34.0667083,38.8888889 C34.0752589,38.8718638 34.0923602,38.8633513 34.1009109,38.8463262 C34.5455438,38.3100358 35.0585819,37.8248208 35.5972718,37.3055556 C35.9649491,36.9565412 36.341177,36.5905018 36.7088543,36.2074373 C37.555367,35.3306452 38,34.3091398 38,33.2620968 C38,32.2065412 37.5468164,31.1935484 36.6832023,30.3422939 L31.9889042,25.6518817 Z M35.0500312,34.6155914 C35.0414806,34.6155914 35.0414806,34.6241039 35.0500312,34.6155914 C34.7165565,34.9731183 34.3745311,35.296595 34.0068539,35.6541219 C33.4510627,36.1818996 32.8867208,36.7352151 32.3565815,37.3566308 C31.4929674,38.2759857 30.475442,38.7101254 29.1415431,38.7101254 C29.0132836,38.7101254 28.8764734,38.7101254 28.7482139,38.7016129 C26.2086756,38.5398746 23.8487006,37.5524194 22.0787193,36.7096774 C17.2390604,34.3772401 12.9893953,31.0658602 9.45798337,26.8691756 C6.54221714,23.3705197 4.59267257,20.1357527 3.30152682,16.6626344 C2.50631785,14.5430108 2.21559629,12.8915771 2.3438558,11.3337814 C2.42936214,10.3378136 2.81414068,9.51209677 3.52384331,8.80555556 L6.43960954,5.90277778 C6.85859061,5.51120072 7.30322358,5.2983871 7.73930592,5.2983871 C8.27799587,5.2983871 8.71407821,5.6218638 8.9876985,5.89426523 C8.99624913,5.90277778 9.00479977,5.91129032 9.0133504,5.91980287 C9.53493908,6.40501792 10.0308759,6.90725806 10.5524645,7.44354839 C10.8175342,7.71594982 11.0911545,7.98835125 11.3647748,8.26926523 L13.6990979,10.59319 C14.6054651,11.4955197 14.6054651,12.3297491 13.6990979,13.2320789 C13.4511295,13.4789427 13.2117117,13.7258065 12.9637434,13.9641577 C12.2454901,14.6962366 11.5614394,15.3772401 10.8175342,16.0412186 C10.8004329,16.0582437 10.7833317,16.0667563 10.774781,16.0837814 C10.0394265,16.8158602 10.1762366,17.530914 10.3301481,18.016129 C10.3386987,18.0416667 10.3472493,18.0672043 10.3558,18.0927419 C10.962895,19.5568996 11.8179584,20.9359319 13.1176548,22.578853 L13.1262054,22.5873656 C15.4861804,25.4816308 17.9744149,27.7374552 20.7191685,29.4655018 C21.0697445,29.686828 21.4288711,29.8655914 21.7708965,30.0358423 C22.0787193,30.1890681 22.3694409,30.3337814 22.6174093,30.4870072 C22.6516118,30.5040323 22.6858143,30.5295699 22.7200169,30.546595 C23.0107384,30.6913082 23.2843587,30.7594086 23.5665296,30.7594086 C24.2762323,30.7594086 24.7208652,30.3167563 24.866226,30.172043 L27.7905429,27.2607527 C28.0812644,26.9713262 28.5429987,26.6223118 29.0816886,26.6223118 C29.6118279,26.6223118 30.0479103,26.9543011 30.3129799,27.2437276 C30.3215306,27.2522401 30.3215306,27.2522401 30.3300812,27.2607527 L35.0414806,31.9511649 C35.9221959,32.8194444 35.9221959,33.7132616 35.0500312,34.6155914 Z" id="Shape"></path>
                        <path d="M21.9338474,10.2507858 C24.1356381,10.6205836 26.1357381,11.6627409 27.7324566,13.259595 C29.329175,14.856449 30.3628402,16.8567189 30.7410103,19.0586966 C30.8334519,19.6133932 31.3124675,20 31.8587132,20 C31.9259435,20 31.98477,19.9915955 32.0520002,19.983191 C32.67388,19.8823371 33.0856653,19.2940224 32.98482,18.6720898 C32.5310158,16.0078649 31.2704485,13.5789658 29.3459826,11.6543364 C27.4215167,9.72970709 24.9928238,8.46903283 22.3288251,8.0151901 C21.7069453,7.91433616 21.1270844,8.32615642 21.0178352,8.93968455 C20.9085861,9.55321269 21.3119676,10.1499318 21.9338474,10.2507858 Z" id="Shape"></path>
                        <path d="M39.9825958,17.6803547 C39.2299915,13.2646187 37.1497592,9.24646801 33.9533047,6.04886602 C30.7568503,2.85126403 26.7401416,0.770284961 22.3259902,0.0174104192 C21.7086855,-0.0925600195 21.1252058,0.330403206 21.0152748,0.947929516 C20.9138,1.57391509 21.3281552,2.15760434 21.9539162,2.26757478 C25.8945188,2.93585668 29.488416,4.80535414 32.3466213,7.65612628 C35.2048266,10.5153577 37.0651969,14.1105451 37.733239,18.0525624 C37.8262575,18.6108738 38.3082625,19 38.8579174,19 C38.9255672,19 38.9847608,18.9915407 39.0524107,18.9830815 C39.6697154,18.8900296 40.0925268,18.297881 39.9825958,17.6803547 Z" id="Shape"></path>
                    </g>
                </g>
            </g>
        </g>
    </g>
</svg>