<?xml version="1.0" encoding="UTF-8"?>
<svg width="30px" height="30px" viewBox="0 0 30 30" version="1.1" xmlns="http://www.w3.org/2000/svg" xmlns:xlink="http://www.w3.org/1999/xlink">
    <!-- Generator: Sketch 51.2 (57519) - http://www.bohemiancoding.com/sketch -->
    <title>phone-receiver</title>
    <desc>Created with Sketch.</desc>
    <defs></defs>
    <g id="Page-1" stroke="none" stroke-width="1" fill="none" fill-rule="evenodd">
        <g id="home" transform="translate(-762.000000, -4149.000000)" fill="#0B7C8A" fill-rule="nonzero">
            <g id="Карта" transform="translate(0.000000, 3738.000000)">
                <g id="Контактная-информация" transform="translate(130.000000, 371.000000)">
                    <g id="Телефоны" transform="translate(600.000000, 0.000000)">
                        <g id="phone-receiver" transform="translate(32.000000, 40.000000)">
                            <path d="M29.9393782,23.6335751 C30.0028497,24.1198446 29.8546632,24.5426425 29.4954404,24.9019689 L25.2780311,29.087513 C25.087772,29.2989119 24.8394301,29.4787565 24.5329016,29.6265803 C24.2263731,29.7746114 23.9251813,29.8697409 23.6293264,29.9119689 C23.6081865,29.9119689 23.5446114,29.9174093 23.4388601,29.9279793 C23.3333161,29.9384974 23.1959067,29.943886 23.0267876,29.943886 C22.6250259,29.943886 21.9749223,29.8751813 21.0764767,29.7377202 C20.1780311,29.6002591 19.0788083,29.2619689 17.7788083,28.7230052 C16.4784974,28.1839378 15.0040415,27.3752332 13.3551813,26.2972021 C11.7063212,25.2192228 9.95165803,23.7393264 8.09134715,21.8578238 C6.6115544,20.399171 5.38544041,19.0039378 4.41300518,17.6721762 C3.44056995,16.3403109 2.65839378,15.1089119 2.06647668,13.9779275 C1.47450777,12.846943 1.03056995,11.821658 0.734611399,10.9020725 C0.43865285,9.98248705 0.237823834,9.18974093 0.132124352,8.5238342 C0.0264248705,7.85792746 -0.0158549223,7.33471503 0.00528497409,6.95419689 C0.0264248705,6.57367876 0.0369948187,6.36227979 0.0369948187,6.32 C0.0792746114,6.02404145 0.174404145,5.72279793 0.32238342,5.41626943 C0.470362694,5.10974093 0.650051813,4.86134715 0.861450777,4.67108808 L5.0788601,0.453678756 C5.37481865,0.157720207 5.71305699,0.00974093264 6.09357513,0.00974093264 C6.36839378,0.00974093264 6.61150259,0.089015544 6.82290155,0.247564767 C7.03430052,0.40611399 7.21398964,0.601658031 7.36196891,0.834196891 L10.7549223,7.27129534 C10.9451813,7.60953368 10.9980311,7.97948187 10.9134715,8.3811399 C10.8289119,8.78279793 10.6492228,9.12103627 10.3744041,9.39585492 L8.82062176,10.9496373 C8.77834197,10.9919171 8.74134715,11.0606218 8.70963731,11.1557513 C8.67792746,11.2508808 8.66207254,11.3301554 8.66207254,11.3935751 C8.74663212,11.837513 8.93689119,12.3448705 9.23284974,12.9156477 C9.4865285,13.4230052 9.87761658,14.0413472 10.406114,14.7706736 C10.9346114,15.5 11.6850777,16.3402591 12.657513,17.2915544 C13.6088083,18.2640933 14.4544041,19.0197409 15.1943005,19.5589119 C15.9340415,20.097772 16.5525907,20.4943005 17.0493782,20.7479793 C17.5461658,21.001658 17.9266839,21.1549223 18.1908808,21.2076166 L18.5871503,21.286943 C18.6294301,21.286943 18.6982902,21.2710363 18.7933161,21.2393782 C18.8884456,21.2076166 18.9571503,21.1706736 18.9994819,21.128342 L20.8068912,19.289171 C21.1876166,18.9509845 21.6313472,18.7818653 22.1387565,18.7818653 C22.4982383,18.7818653 22.7834715,18.8452332 22.9948705,18.9721244 L23.0265285,18.9721244 L29.1464767,22.5870466 C29.5905699,22.8620725 29.8547668,23.2107772 29.9393782,23.6335751 Z" id="Shape"></path>
                        </g>
                    </g>
                </g>
            </g>
        </g>
    </g>
</svg>