<?xml version="1.0" encoding="UTF-8"?>
<svg width="30px" height="44px" viewBox="0 0 30 44" version="1.1" xmlns="http://www.w3.org/2000/svg" xmlns:xlink="http://www.w3.org/1999/xlink">
    <!-- Generator: Sketch 51.2 (57519) - http://www.bohemiancoding.com/sketch -->
    <title>facebook-placeholder-for-locate-places-on-maps</title>
    <desc>Created with Sketch.</desc>
    <defs></defs>
    <g id="Page-1" stroke="none" stroke-width="1" fill="none" fill-rule="evenodd">
        <g id="home" transform="translate(-162.000000, -4142.000000)" fill="#0B7C8A" fill-rule="nonzero">
            <g id="Карта" transform="translate(0.000000, 3738.000000)">
                <g id="Контактная-информация" transform="translate(130.000000, 371.000000)">
                    <g id="Адрес">
                        <g id="facebook-placeholder-for-locate-places-on-maps" transform="translate(32.000000, 33.000000)">
                            <path d="M29.291266,10.8138591 C29.1362558,10.2342295 28.8214767,9.61661799 28.5886069,9.07587958 C25.8020675,2.39448222 19.7135365,0 14.7973527,0 C8.21615036,0 0.967725605,4.40288146 0,13.478256 L0,15.3324038 C0,15.409782 0.0267293952,16.1048728 0.0646972862,16.4525698 C0.607182512,20.7776689 4.02783637,25.374299 6.58251857,29.6993982 C9.33098889,34.3333031 12.1829344,38.8917491 15.0084542,43.4482759 C16.7507248,40.4747702 18.486718,37.4621713 20.1892995,34.5656398 C20.6533177,33.7155905 21.1919555,32.8660463 21.65648,32.0546862 C21.9660955,31.5144529 22.5575846,30.9742195 22.8278148,30.4715641 C25.5761838,25.4511721 30,20.39199 30,15.409681 L30,13.3628957 C30.0001012,12.8227634 29.3290314,10.9303305 29.291266,10.8138591 Z M14.9178375,20.1216713 C12.9832975,20.1216713 10.8658029,19.1565649 9.82062281,16.4912589 C9.66490383,16.0669919 9.67745855,15.2167406 9.67745855,15.1388573 L9.67745855,13.9416161 C9.67745855,10.5438435 12.5690931,8.99870339 15.0846937,8.99870339 C18.1816586,8.99870339 20.5768757,11.4707659 20.5768757,14.5606419 C20.5768757,17.650417 18.0148024,20.1216713 14.9178375,20.1216713 Z" id="Facebook_Places"></path>
                        </g>
                    </g>
                </g>
            </g>
        </g>
    </g>
</svg>