<?xml version="1.0" encoding="UTF-8"?>
<svg width="30px" height="30px" viewBox="0 0 30 30" version="1.1" xmlns="http://www.w3.org/2000/svg" xmlns:xlink="http://www.w3.org/1999/xlink">
    <g id="Page-1" stroke="none" stroke-width="1" fill="none" fill-rule="evenodd">
        <g id="home" transform="translate(-1099.000000, -135.000000)" fill="#FFFFFF" fill-rule="nonzero">
            <g id="Шапка-сайта">
                <g id="Написать-на-WhatsApp" transform="translate(1078.000000, 125.000000)">
                    <g id="whatsapp" transform="translate(21.000000, 10.000000)">
                        <path d="M15,0 C6.72865385,0 0,6.72865385 0,15 C0,17.8217308 0.784038462,20.5609615 2.27134615,22.9396154 C1.67884615,25.0153846 0.608653846,28.9419231 0.597115385,28.9828846 C0.541730769,29.1859615 0.601153846,29.4028846 0.752884615,29.5488462 C0.904615385,29.6948077 1.12384615,29.7467308 1.32346154,29.6855769 L7.26923077,27.8567308 C9.59826923,29.2598077 12.2653846,30 15,30 C23.2713462,30 30,23.2713462 30,15 C30,6.72865385 23.2713462,0 15,0 Z M15,28.8461538 C12.3928846,28.8461538 9.85326923,28.1175 7.65519231,26.7398077 C7.56230769,26.6815385 7.45557692,26.6521154 7.34884615,26.6521154 C7.29173077,26.6521154 7.23461538,26.6607692 7.17923077,26.6775 L1.9875,28.2755769 C2.36884615,26.8834615 3.05423077,24.3934615 3.45173077,23.0082692 C3.49788462,22.8478846 3.47192308,22.6748077 3.38134615,22.5346154 C1.92403846,20.2921154 1.15384615,17.6867308 1.15384615,15 C1.15384615,7.36557692 7.36557692,1.15384615 15,1.15384615 C22.6344231,1.15384615 28.8461538,7.36557692 28.8461538,15 C28.8461538,22.6344231 22.6344231,28.8461538 15,28.8461538 Z" id="Shape"></path>
                        <path d="M24.6989804,18.5876771 C23.6181762,18.0104002 22.6977947,17.4314337 22.0262441,17.009036 C21.5133598,16.6868873 21.1427482,16.454287 20.8710834,16.3230621 C20.1117102,15.9586737 19.536179,16.2160547 19.3172078,16.4289431 C19.2896901,16.4554134 19.2650997,16.4841364 19.2440223,16.5145491 C18.4553748,17.6527701 17.4255078,18.7414299 17.1239833,18.8000024 C16.7756201,18.7476251 15.1450461,17.8560842 13.5244253,16.5579152 C11.8698464,15.2315864 10.8288551,13.9615772 10.6760437,13.0965066 C11.7375269,12.0455811 12.1198482,11.3843879 12.1198482,10.6319567 C12.1198482,9.85643448 10.2392723,6.61861509 9.89910591,6.29139765 C9.55776851,5.96361702 8.7890275,5.91236609 7.61396033,6.13764488 C7.50096184,6.15960956 7.39674562,6.21311327 7.3147778,6.29139765 C7.1725051,6.42825452 3.84344084,9.69310736 5.42541967,13.6501293 C7.16196638,17.9929411 11.6192591,23.0408756 17.3019706,23.8608903 C17.9477599,23.9538178 18.5531507,24 19.1198996,24 C22.4630155,24 24.4360979,22.3819351 24.9917226,19.1722756 C25.033292,18.9374224 24.9156096,18.7031325 24.6989804,18.5876771 Z M17.4758594,22.7468867 C11.4664476,21.8801266 7.68129103,16.1529766 6.51851903,13.2457538 C5.36511478,10.3621854 7.49217958,7.79119119 8.02614134,7.20997191 C8.46057076,7.13900909 8.91783407,7.10915966 9.10870198,7.1378827 C9.50741685,7.67123023 10.887989,10.1802727 10.9488794,10.6319567 C10.9488794,10.9276351 10.8487616,11.3393321 9.65671537,12.4865643 C9.54664431,12.5918822 9.48516845,12.7349342 9.48516845,12.8847446 C9.48516845,15.8336439 15.9512581,19.9247067 17.0964655,19.9247067 C18.0923745,19.9247067 19.3909789,18.3145266 20.1304457,17.2652906 C20.173186,17.2669802 20.2452006,17.2810601 20.3476604,17.3306215 C20.5584348,17.4325601 20.923777,17.6617813 21.3857242,17.9523909 C21.9957989,18.3359281 22.8061093,18.8450581 23.7627908,19.3727737 C23.3283614,21.3833869 22.1140668,23.4170911 17.4758594,22.7468867 Z" id="Shape"></path>
                    </g>
                </g>
            </g>
        </g>
    </g>
</svg>